<mxfile host="app.diagrams.net" modified="2023-12-07T19:46:40.538Z" agent="Mozilla/5.0 (Windows NT 10.0; Win64; x64; rv:120.0) Gecko/20100101 Firefox/120.0" version="22.1.7" etag="JURx-tdmhNWZAV_y_DR_" type="github">
  <diagram name="PÃ¡gina-1" id="DWjiMil6QpRck5204m84">
    <mxGraphModel>
      <root>
        <mxCell id="0" />
        <mxCell id="1" parent="0" />
      </root>
    </mxGraphModel>
  </diagram>
</mxfile>
